<svg xmlns="http://www.w3.org/2000/svg" viewBox="0 0 49.89 50.61"><defs><style>.a{fill:#dcd5d5;}.b{fill:none;stroke:#dcd5d5;stroke-miterlimit:10;}</style></defs><title>dash_icon</title><polygon class="a" points="49.89 36.92 46.71 39.85 49.89 42.78 46.72 45.71 48.84 47.66 45.64 50.61 20.52 27.5 21.05 27.5 21.05 24.74 17.51 24.74 16.01 23.36 25.56 23.36 25.56 20.59 13 20.59 9.76 17.6 11.02 16.44 22.55 16.44 22.55 13.68 17.89 13.68 20.9 10.91 28.56 10.91 28.56 8.14 23.9 8.14 24.44 7.65 24.64 7.81 26.77 5.86 33.15 0 48.03 13.69 43.78 17.6 45.29 19 46.21 19.83 44.09 21.79 45.91 23.46 43.78 25.41 49.89 31.04 46.71 33.99 49.89 36.92"/><line class="b" x1="9.02" y1="9.53" x2="27.06" y2="9.53"/><line class="b" x1="3.01" y1="15.06" x2="21.05" y2="15.06"/><line class="b" y1="21.97" x2="24.05" y2="21.97"/><line class="b" x1="19.54" y1="26.12" x2="10.52" y2="26.12"/></svg>