<svg xmlns="http://www.w3.org/2000/svg" viewBox="0 0 64 64"><defs><style>.a,.c{fill:none;stroke:#dcd5d5;stroke-miterlimit:10;}.a{stroke-width:4px;}.b{fill:#dcd5d5;}</style></defs><title>dash_icon_framed</title><rect class="a" x="2" y="2" width="60" height="60"/><polygon class="b" points="56.89 43.74 53.71 46.67 56.89 49.6 53.72 52.53 55.84 54.48 52.64 57.43 27.52 34.32 28.05 34.32 28.05 31.56 24.51 31.56 23.01 30.18 32.56 30.18 32.56 27.41 20 27.41 16.76 24.42 18.02 23.26 29.55 23.26 29.55 20.5 24.89 20.5 27.9 17.73 35.56 17.73 35.56 14.96 30.9 14.96 31.44 14.47 31.64 14.63 33.77 12.68 40.15 6.82 55.03 20.51 50.78 24.42 52.29 25.82 53.21 26.65 51.09 28.61 52.91 30.29 50.78 32.23 56.89 37.86 53.71 40.81 56.89 43.74"/><line class="c" x1="16.02" y1="16.35" x2="34.06" y2="16.35"/><line class="c" x1="10.01" y1="21.88" x2="28.05" y2="21.88"/><line class="c" x1="7" y1="28.79" x2="31.05" y2="28.79"/><line class="c" x1="26.54" y1="32.94" x2="17.52" y2="32.94"/></svg>